<?xml version="1.0" encoding="utf-8"?>
<!-- Generator: Adobe Illustrator 16.0.0, SVG Export Plug-In . SVG Version: 6.00 Build 0)  -->
<!DOCTYPE svg PUBLIC "-//W3C//DTD SVG 1.1//EN" "http://www.w3.org/Graphics/SVG/1.1/DTD/svg11.dtd">
<svg version="1.1" id="Layer_1" xmlns="http://www.w3.org/2000/svg" xmlns:xlink="http://www.w3.org/1999/xlink" x="0px" y="0px"
	 width="900px" height="300px" viewBox="0 0 900 300" enable-background="new 0 0 900 300" xml:space="preserve">
<path fill="#F37A22" d="M54.776,86.759c0,0-5.389,0-7.186,0c-3.221,0-6.253,2.44-6.253,5.267c0,2.889,2.195,5.219,5.474,5.219
	c0.228,0,0.449-0.003,0.665-0.019c-0.213,0.407-0.365,0.867-0.365,1.342c0,0.803,0.433,1.453,0.979,1.984
	c-0.412,0-0.812,0.013-1.245,0.013c-3.989,0-7.061,2.541-7.061,5.175c0,2.594,3.367,4.219,7.355,4.219
	c4.549,0,7.061-2.582,7.061-5.176c0-2.083-0.614-3.328-2.512-4.671c-0.649-0.458-1.892-1.577-1.892-2.233
	c0-0.769,0.218-1.15,1.378-2.055c1.19-0.927,2.03-2.234,2.03-3.75c0-1.807-0.804-3.57-2.317-4.152h2.28L54.776,86.759z
	 M52.266,104.334c0.058,0.24,0.09,0.488,0.09,0.74c0,2.097-1.351,3.735-5.229,3.735c-2.758,0-4.749-1.745-4.749-3.842
	c0-2.054,2.469-3.766,5.226-3.736c0.645,0.007,1.244,0.11,1.789,0.287C50.89,102.56,51.966,103.149,52.266,104.334z M47.853,96.513
	c-1.85-0.057-3.609-2.072-3.93-4.502c-0.318-2.432,0.922-4.292,2.772-4.236c1.852,0.056,3.61,2.005,3.93,4.437
	C50.944,94.644,49.702,96.569,47.853,96.513z M62.095,91.907v-5.148H60.38v5.148h-5.147v1.715h5.147v5.149h1.715v-5.149h5.149
	v-1.715H62.095z"/>
<path fill="#F37A22" d="M90.479,111.229h-5.146V97.5h-3.432v-4.73l3.432-0.001l-0.005-2.787c0-3.86,1.046-6.21,5.593-6.21h3.785
	v4.731h-2.365c-1.771,0-1.856,0.66-1.856,1.896l-0.006,2.368h4.255l-0.5,4.73l-3.751,0.001L90.479,111.229z"/>
<path fill="#F37A22" d="M136.983,88.785c-1.009,0.447-2.096,0.751-3.235,0.887c1.162-0.697,2.056-1.8,2.477-3.116
	c-1.09,0.644-2.293,1.114-3.577,1.366c-1.027-1.095-2.492-1.78-4.112-1.78c-3.11,0-5.635,2.523-5.635,5.635
	c0,0.442,0.051,0.872,0.147,1.284c-4.683-0.236-8.834-2.479-11.611-5.888c-0.485,0.833-0.765,1.799-0.765,2.833
	c0,1.954,0.996,3.678,2.506,4.689c-0.923-0.031-1.792-0.282-2.552-0.704c0,0.023,0,0.045,0,0.07c0,2.73,1.94,5.005,4.519,5.525
	c-0.473,0.129-0.971,0.197-1.485,0.197c-0.363,0-0.715-0.035-1.06-0.099c0.716,2.235,2.797,3.865,5.263,3.911
	c-1.928,1.51-4.358,2.412-6.996,2.412c-0.455,0-0.903-0.028-1.345-0.08c2.492,1.6,5.455,2.533,8.636,2.533
	c10.362,0,16.027-8.585,16.027-16.03c0-0.245-0.005-0.487-0.015-0.729C135.273,90.906,136.229,89.916,136.983,88.785z"/>
<path fill="#F37A22" d="M27.031,86.313H9.869c-2.832,0-5.149,2.318-5.149,5.15v10.296c0,2.833,2.317,5.15,5.149,5.15h17.162
	c2.832,0,5.149-2.317,5.149-5.15V91.463C32.179,88.632,29.861,86.313,27.031,86.313z M15.017,103.478v-13.73l8.582,6.865
	L15.017,103.478z"/>
<rect y="80" fill="none" width="35" height="35"/>
<rect x="35" y="80" fill="none" width="35" height="35"/>
<rect x="70" y="80" fill="none" width="35" height="35"/>
<rect x="105" y="80" fill="none" width="35" height="35"/>
<rect x="140.114" y="80" fill="none" width="35" height="35"/>
<path fill="#3A567D" d="M54.776,121.759c0,0-5.389,0-7.186,0c-3.221,0-6.253,2.44-6.253,5.267c0,2.889,2.195,5.219,5.474,5.219
	c0.228,0,0.449-0.003,0.665-0.019c-0.213,0.407-0.365,0.867-0.365,1.342c0,0.803,0.433,1.453,0.979,1.984
	c-0.412,0-0.812,0.013-1.245,0.013c-3.989,0-7.061,2.541-7.061,5.175c0,2.594,3.367,4.219,7.355,4.219
	c4.549,0,7.061-2.582,7.061-5.176c0-2.083-0.614-3.328-2.512-4.671c-0.649-0.458-1.892-1.577-1.892-2.233
	c0-0.769,0.218-1.15,1.378-2.055c1.19-0.927,2.03-2.234,2.03-3.75c0-1.807-0.804-3.57-2.317-4.152h2.28L54.776,121.759z
	 M52.266,139.334c0.058,0.24,0.09,0.488,0.09,0.74c0,2.097-1.351,3.735-5.229,3.735c-2.758,0-4.749-1.745-4.749-3.842
	c0-2.054,2.469-3.766,5.226-3.736c0.645,0.007,1.244,0.11,1.789,0.287C50.89,137.56,51.966,138.149,52.266,139.334z M47.853,131.513
	c-1.85-0.057-3.609-2.072-3.93-4.502c-0.318-2.432,0.922-4.292,2.772-4.236c1.852,0.056,3.61,2.005,3.93,4.437
	C50.944,129.644,49.702,131.569,47.853,131.513z M62.095,126.907v-5.148H60.38v5.148h-5.147v1.715h5.147v5.149h1.715v-5.149h5.149
	v-1.715H62.095z"/>
<path fill="#3A567D" d="M90.479,146.229h-5.146V132.5h-3.432v-4.73l3.432-0.001l-0.005-2.787c0-3.86,1.046-6.21,5.593-6.21h3.785
	v4.731h-2.365c-1.771,0-1.856,0.66-1.856,1.896l-0.006,2.368h4.255l-0.5,4.73l-3.751,0.001L90.479,146.229z"/>
<path fill="#3A567D" d="M136.983,123.785c-1.009,0.447-2.096,0.751-3.235,0.887c1.162-0.697,2.056-1.8,2.477-3.116
	c-1.09,0.644-2.293,1.114-3.577,1.366c-1.027-1.095-2.492-1.78-4.112-1.78c-3.11,0-5.635,2.523-5.635,5.635
	c0,0.442,0.051,0.872,0.147,1.284c-4.683-0.236-8.834-2.479-11.611-5.888c-0.485,0.833-0.765,1.799-0.765,2.833
	c0,1.954,0.996,3.678,2.506,4.689c-0.923-0.031-1.792-0.282-2.552-0.704c0,0.023,0,0.045,0,0.07c0,2.73,1.94,5.005,4.519,5.525
	c-0.473,0.129-0.971,0.197-1.485,0.197c-0.363,0-0.715-0.035-1.06-0.099c0.716,2.235,2.797,3.865,5.263,3.911
	c-1.928,1.51-4.358,2.412-6.996,2.412c-0.455,0-0.903-0.028-1.345-0.08c2.492,1.6,5.455,2.533,8.636,2.533
	c10.362,0,16.027-8.585,16.027-16.03c0-0.245-0.005-0.487-0.015-0.729C135.273,125.906,136.229,124.916,136.983,123.785z"/>
<path fill="#3A567D" d="M27.031,121.313H9.869c-2.832,0-5.149,2.318-5.149,5.15v10.296c0,2.833,2.317,5.15,5.149,5.15h17.162
	c2.832,0,5.149-2.317,5.149-5.15v-10.296C32.179,123.632,29.861,121.313,27.031,121.313z M15.017,138.478v-13.73l8.582,6.865
	L15.017,138.478z"/>
<rect y="115" fill="none" width="35" height="35"/>
<rect x="35" y="115" fill="none" width="35" height="35"/>
<rect x="70" y="115" fill="none" width="35" height="35"/>
<rect x="105" y="115" fill="none" width="35" height="35"/>
<rect y="150" fill="none" width="80" height="80"/>
<rect x="280" fill="none" width="400" height="50"/>
<rect x="280" y="100" fill="none" width="435" height="150"/>
<rect fill="none" width="80" height="80"/>
<rect x="79.87" fill="none" width="80" height="80"/>
<rect x="160" fill="none" width="80" height="80"/>
<g>
	<path fill="#FFFFFF" d="M326.071,163.949c0.078,0,0.234,2.105,0.234,2.418c-14.431,7.879-23.323,2.73-22.465-14.588
		c0.468-9.438,6.006-29.405,7.878-33.618c-7.723-2.574-14.898-5.772-19.734-2.184c-7.645,5.616-1.95,17.863,13.182,18.175
		c0.937,0-2.573,5.304-8.111,4.368c-13.729-2.418-16.147-21.217-2.106-25.897c9.36-3.12,20.982,1.638,30.889,3.198
		c27.067,4.291,61.856,2.652,80.109-10.921c1.092,7.957-5.304,14.508-7.956,15.6c-5.148,2.263-15.133,11.232-78.705-0.545
		c-1.092,3.979-6.318,24.727-6.084,35.881C313.435,169.176,319.051,167.146,326.071,163.949z"/>
	<path fill="#FFFFFF" d="M338.94,164.262c7.176-0.937,10.998-12.715,9.75-18.019c-10.14-0.312-5.382-10.297-0.078-8.113
		c5.929,2.496,3.744,12.169,2.263,17.006c-2.574,8.189-8.347,15.21-16.927,14.819c-12.402-0.545-13.183-30.811,1.794-38.455
		c4.524-2.34,9.517-2.496,12.793,0.937c0.936,1.092,1.794,2.34,2.418,3.9C331.92,128.771,328.878,165.51,338.94,164.262z"/>
	<path fill="#FFFFFF" d="M376.302,129.862c7.021,2.184,8.736,3.51,8.503,4.523c-5.929,24.883-2.73,37.442,15.288,27.614l0.702,1.715
		c-14.118,8.349-27.145,3.433-26.287-16.146c-7.878,40.793-26.287,20.515-16.146-17.941c7.099,2.184,8.814,3.51,8.502,4.524
		c-3.821,14.118-3.275,28.393-0.468,27.613C370.062,160.829,374.43,135.946,376.302,129.862z"/>
	<path fill="#FFFFFF" d="M402.042,130.252c3.432,0.468,7.488,2.263,8.346,6.007c2.028,9.281-5.694,22.933-5.694,23.322
		c2.419,19.579-2.886,29.095-20.28,16.536l1.638-1.482c16.225,11.232,9.283-10.139,7.645-23.712
		C392.838,143.669,392.525,128.927,402.042,130.252z M407.034,137.038c-1.794-0.623-4.914,5.851-2.964,19.188
		C409.296,143.825,408.672,137.507,407.034,137.038z"/>
	<path fill="#FFFFFF" d="M472.319,164.262c-13.729,8.033-22.543,4.758-25.977-4.759c-2.964,6.396-7.801,11.077-14.194,10.374
		c-10.999-1.092-10.375-31.356,3.195-38.299c4.137-2.106,8.581-2.028,11.312,1.56c0.078,0.156,0.154,0.234,0.232,0.391
		c0.312-1.092,0.624-2.105,0.938-3.198c7.021,2.185,8.734,3.511,8.503,4.524c-5.929,24.883-2.73,37.44,15.288,27.612
		L472.319,164.262z M436.048,161.375c8.814,4.291,12.637-27.69,5.305-24.727C434.254,139.456,431.758,159.27,436.048,161.375z"/>
	<path fill="#FFFFFF" d="M486.905,130.252c0,0,2.184-0.546,4.212,1.248c-5.538,4.759-13.417,23.011-16.615,37.91
		c-0.701,1.326-5.928,0.232-6.708-2.107c-2.496-7.644-2.104-25.271,0.78-36.505c7.176,2.184,9.126,3.51,8.734,4.446
		c-1.402,3.9-3.51,16.225-3.82,25.195C475.517,153.497,483.238,134.854,486.905,130.252z"/>
	<path fill="#FFFFFF" d="M517.715,160.361c-0.232,0.156-5.07,3.744-5.305,3.898c-30.109,21.529-33.541-24.025-14.041-33.073
		c12.793-5.929,23.791,6.162-2.573,25.74c0,11.778,5.46,12.403,15.603,5.694c0.231-0.156,5.226-3.743,5.46-3.898L517.715,160.361z
		 M506.95,137.429c-2.496-0.547-9.829,5.46-10.921,16.225C507.496,142.966,508.979,137.896,506.95,137.429z"/>
	<path fill="#FFFFFF" d="M544.858,160.049c-0.234,0.156-5.07,3.744-5.306,3.9c-30.107,21.451-33.542-20.515-15.289-31.981
		c4.446-2.808,9.828-2.73,13.963-0.39l-4.603,7.41c-14.274-3.198-19.812,39.704,4.914,23.323c0.233-0.156,5.227-3.744,5.46-3.898
		L544.858,160.049z"/>
	<path fill="#FFFFFF" d="M594.31,179.004c-10.45,0.779-21.139-7.879-24.022-8.113c-9.438,22.312-31.592-0.779-7.411-4.055
		c4.759-16.692,7.177-44.696,7.333-54.212c5.07,1.014,9.828,3.12,9.828,4.134c-0.702,12.558-5.07,39.236-8.736,51.327
		c11.7,5.069,20.438,5.304,31.201,3.354C600.082,176.977,598.678,178.613,594.31,179.004z M554.138,176.117
		c0.938,1.482,4.446,1.092,7.803-5.771C554.84,171.203,553.202,174.559,554.138,176.117z"/>
	<path fill="#FFFFFF" d="M612.015,165.354c-24.023,14.119-32.918-6.316-24.569-33.854c7.099,2.185,8.734,3.511,8.502,4.446
		c-5.852,24.883-2.651,37.519,15.367,27.69L612.015,165.354z M592.67,114.963c7.021,2.262,8.112,4.993,7.878,6.006
		c-0.856,3.354-2.418,8.112-3.354,11.467C585.806,129.394,592.67,114.963,592.67,114.963z"/>
	<path fill="#FFFFFF" d="M649.22,164.105c-29.482,17.395-26.755-17.317-26.755-18.723c-3.042,4.914-5.382,12.948-9.048,24.025
		c-0.468,1.324-5.929,0.232-6.553-2.107c-2.186-7.644-0.938-25.272,2.573-36.583c7.021,2.262,8.813,3.588,8.504,4.524
		c-1.641,3.9-4.369,16.225-5.07,25.193c2.808-8.188,10.296-28.159,13.962-28.235c2.028-0.078,6.553,1.717,6.396,2.574
		c-5.929,24.883-2.729,37.44,15.288,27.612L649.22,164.105z"/>
	<path fill="#FFFFFF" d="M657.408,164.262c7.176-0.937,10.998-12.715,9.75-18.019c-10.143-0.312-5.382-10.297-0.078-8.113
		c5.929,2.496,3.744,12.169,2.263,17.006c-2.573,8.189-8.347,15.21-16.927,14.819c-12.402-0.545-13.183-30.811,1.794-38.455
		c4.524-2.34,9.517-2.496,12.792,0.937c0.938,1.092,1.795,2.34,2.419,3.9C650.388,128.771,647.346,165.51,657.408,164.262z"/>
	<path fill="#FFFFFF" d="M676.439,175.182c-0.938,0.547,0.855-4.914-0.156-5.227c-1.95-0.623-2.964-2.887-2.186-4.992
		c0.779-2.105,3.042-3.354,4.914-2.729C684.707,164.027,677.844,174.246,676.439,175.182z"/>
	<path fill="#FFFFFF" d="M290.813,199.029c-0.255,0.51-1.938,5.508-3.876,9.281l-1.428-0.357c0,0,1.428-5.457,2.04-9.588
		L290.813,199.029z M295.301,199.029c-0.255,0.51-1.938,5.508-3.876,9.281l-1.428-0.357c0,0,1.428-5.457,2.04-9.588L295.301,199.029
		z"/>
	<path fill="#FFFFFF" d="M320.188,228.146c-15.707,9.229-21.521-4.131-16.063-22.131c4.641,1.428,5.711,2.295,5.559,2.904
		c-3.825,16.27-1.734,24.529,10.046,18.104L320.188,228.146z M307.54,195.205c4.59,1.479,5.304,3.264,5.151,3.926
		c-0.562,2.193-1.581,5.303-2.193,7.496C303.053,204.639,307.54,195.205,307.54,195.205z"/>
	<path fill="#FFFFFF" d="M334.212,228.146c-13.514,7.955-19.685-0.867-17.695-14.941c0.918-6.477,3.671-16.062,5.456-20.602
		c4.59,1.428,5.304,3.264,5.15,3.875c-1.325,5.1-3.468,11.883-4.487,17.645c-2.192,12.75,0.663,18.613,11.117,12.902
		L334.212,228.146z"/>
	<path fill="#FFFFFF" d="M346.503,232.736c0.918-3.773,1.632-8.668,2.142-13.412c-4.232,0.408-3.773,0.408-4.946-2.805
		c0,0,2.04,1.07,5.1,1.174c0.356-3.875-0.103-20.5,6.986-19.275c6.272,1.07,3.927,11.982-0.255,18.561
		c1.529-0.305,2.957-0.713,4.13-1.068c0.052,0.609,0.052,1.068-0.306,1.225c-1.529,0.512-3.009,0.971-4.742,1.377
		c-0.562,4.945-1.224,9.844-2.346,14.688C346.707,255.072,328.654,237.174,346.503,232.736z M340.792,240.232
		c0.815,1.123,3.314,0.307,5.252-5.812C340.944,236,340.026,239.061,340.792,240.232z M357.518,201.375
		c-1.784,0.459-2.601,12.748-2.805,14.84C358.793,209.432,358.538,201.068,357.518,201.375z"/>
	<path fill="#FFFFFF" d="M391.023,227.434c-8.975,5.252-14.737,3.109-16.981-3.109c-1.938,4.182-5.099,7.24-9.28,6.781
		c-7.19-0.715-6.782-20.5,2.091-25.039c2.702-1.377,5.609-1.324,7.394,1.021c0.052,0.104,0.103,0.152,0.153,0.256
		c0.204-0.715,0.408-1.377,0.612-2.092c4.589,1.43,5.711,2.295,5.558,2.959c-3.875,16.268-1.784,24.479,9.995,18.051
		L391.023,227.434z M367.312,225.547c5.762,2.805,8.261-18.104,3.467-16.166C366.139,211.217,364.507,224.17,367.312,225.547z"/>
	<path fill="#FFFFFF" d="M400.664,204.945c4.59,1.428,5.711,2.293,5.559,2.957c-3.876,16.268-1.785,24.477,9.995,18.053l0.459,1.121
		c-9.23,5.457-17.747,2.244-17.186-10.557c-5.15,26.672-17.186,13.412-10.556-11.729c4.64,1.428,5.762,2.295,5.558,2.959
		c-2.498,9.229-2.142,18.562-0.306,18.051C396.584,225.189,399.44,208.922,400.664,204.945z"/>
	<path fill="#FFFFFF" d="M430.65,228.146c-13.208,7.803-19.429-0.459-17.797-14.023c0.255-2.295,0.765-4.844,1.428-7.291
		c-1.53-0.408-2.499-0.715-2.499-0.715l-0.051-1.377c0,0,1.173,0.256,2.906,0.51c0.918-3.264,1.888-6.322,2.652-8.465
		c4.641,1.479,5.354,3.264,5.15,3.926c-0.459,1.734-0.918,3.418-1.377,5.1c1.887,0.051,3.876-0.051,5.607-0.406l0.104,2.242
		c-1.989,0.408-4.184,0.408-6.272,0.205c-0.663,2.396-1.225,4.844-1.632,7.445c-1.785,11.932,1.173,17.236,11.32,11.729
		L430.65,228.146z"/>
	<path fill="#FFFFFF" d="M459.107,244.262c-8.771,2.447-12.035-6.119-11.425-16.369c-1.731,1.732-3.876,2.703-6.374,2.447
		c-7.188-0.715-6.78-20.5,2.093-25.039c2.7-1.377,5.607-1.326,7.394,1.02c0.459,0.613,0.867,1.379,1.173,2.244
		c0.408-1.324,0.867-2.549,1.227-3.518c4.641,1.428,5.303,3.264,5.148,3.875c-1.326,5.1-3.213,11.117-4.23,16.879
		c-1.632,9.639-0.513,17.695,4.742,17.391L459.107,244.262z M443.86,224.781c5.607,2.703,8.669-18.256,3.467-16.166
		C442.688,210.451,441.056,223.404,443.86,224.781z"/>
	<path fill="#FFFFFF" d="M472.827,204.945c4.59,1.428,5.711,2.293,5.559,2.957c-3.876,16.268-1.785,24.477,9.995,18.053l0.459,1.121
		c-9.229,5.457-17.747,2.244-17.186-10.557c-5.15,26.672-17.188,13.412-10.558-11.729c4.642,1.428,5.764,2.295,5.56,2.959
		c-2.498,9.229-2.144,18.562-0.308,18.051C468.747,225.189,471.604,208.922,472.827,204.945z"/>
	<path fill="#FFFFFF" d="M488.995,205.207c0.921-0.148,1.62-0.664,2.098-1.543c0.479-0.881,0.716-1.893,0.716-3.039
		c0-0.115-0.004-0.219-0.012-0.311c-0.009-0.092-0.029-0.195-0.062-0.312h-2.739v-5.43h5.329v5.006c0,2.125-0.44,3.93-1.32,5.416
		c-0.88,1.484-2.216,2.336-4.009,2.553L488.995,205.207L488.995,205.207z"/>
	<path fill="#FFFFFF" d="M505.525,227.434c4.69-0.613,7.188-8.312,6.375-11.781c-6.632-0.201-3.521-6.729-0.053-5.303
		c3.875,1.633,2.447,7.955,1.479,11.117c-1.685,5.354-5.456,9.943-11.066,9.689c-8.105-0.357-8.617-20.143,1.174-25.141
		c2.957-1.529,6.223-1.635,8.362,0.609c0.612,0.715,1.173,1.527,1.581,2.551C500.938,204.23,498.947,228.25,505.525,227.434z"/>
	<path fill="#FFFFFF" d="M544.641,227.332c-19.274,11.371-17.489-11.322-17.489-12.24c-1.989,3.213-3.521,8.465-5.916,15.707
		c-0.308,0.867-3.875,0.152-4.283-1.377c-1.428-4.998-0.612-16.521,1.683-23.916c4.59,1.479,5.764,2.346,5.561,2.957
		c-1.07,2.551-2.855,10.607-3.314,16.471c1.836-5.354,6.731-18.408,9.128-18.459c1.326-0.051,4.283,1.121,4.183,1.684
		c-3.877,16.268-1.784,24.479,9.994,18.053L544.641,227.332z"/>
	<path fill="#FFFFFF" d="M576.056,228.146c-14.125,8.361-20.245-1.732-17.286-17.031c-0.814,0.357-1.58,0.459-2.347,0.408
		c-0.204,2.498-1.731,8.873-4.437,13.666c-0.204-0.562-0.459-1.121-0.714-1.686c1.783-3.822,3.264-8.873,3.468-12.49
		c-2.703-1.48-4.184-5.715-1.734-10.914l4.488,2.551c-3.468,9.637,1.887,8.617,2.55,3.365c0.765,0.201,5.864,1.732,5.558,2.904
		c-3.875,16.27-1.782,24.529,9.995,18.104L576.056,228.146z"/>
	<path fill="#FFFFFF" d="M591.56,224.883c-0.15,0.104-3.312,2.449-3.468,2.551c-19.684,14.074-21.928-15.707-9.179-21.623
		c8.363-3.875,15.554,4.029-1.683,16.828c0,7.701,3.567,8.109,10.197,3.723c0.152-0.102,3.416-2.445,3.569-2.549L591.56,224.883z
		 M584.521,209.891c-1.633-0.355-6.426,3.57-7.14,10.607C584.88,213.512,585.849,210.197,584.521,209.891z"/>
	<path fill="#FFFFFF" d="M603.75,204.945c4.59,1.428,5.711,2.293,5.559,2.957c-3.876,16.268-1.783,24.477,9.995,18.053l0.459,1.121
		c-9.229,5.457-17.747,2.244-17.186-10.557c-5.15,26.672-17.188,13.412-10.556-11.729c4.64,1.428,5.762,2.295,5.558,2.959
		c-2.498,9.229-2.144,18.562-0.306,18.051C599.67,225.189,602.526,208.922,603.75,204.945z"/>
	<path fill="#FFFFFF" d="M620.579,205.199c2.244,0.307,4.896,1.479,5.457,3.926c1.326,6.07-3.725,14.994-3.725,15.248
		c1.581,12.801-1.887,19.021-13.259,10.811l1.071-0.969c10.604,7.344,6.068-6.629,4.997-15.502
		C614.562,213.971,614.358,204.332,620.579,205.199z M623.843,209.637c-1.173-0.408-3.212,3.824-1.938,12.543
		C625.322,214.072,624.914,209.941,623.843,209.637z"/>
	<path fill="#FFFFFF" d="M633.992,205.199c2.244,0.307,4.896,1.479,5.457,3.926c1.326,6.07-3.725,14.994-3.725,15.248
		c1.581,12.801-1.887,19.021-13.259,10.811l1.071-0.969c10.604,7.344,6.066-6.629,4.997-15.502
		C627.976,213.971,627.771,204.332,633.992,205.199z M637.256,209.637c-1.173-0.408-3.212,3.824-1.938,12.543
		C638.735,214.072,638.327,209.941,637.256,209.637z"/>
	<path fill="#FFFFFF" d="M659.594,228.146c-15.707,9.229-21.521-4.131-16.062-22.131c4.641,1.428,5.711,2.295,5.559,2.904
		c-3.825,16.27-1.732,24.529,10.046,18.104L659.594,228.146z M646.946,195.205c4.59,1.479,5.304,3.264,5.149,3.926
		c-0.562,2.193-1.581,5.303-2.191,7.496C642.459,204.639,646.946,195.205,646.946,195.205z"/>
	<path fill="#FFFFFF" d="M660.41,205.199c2.244,0.307,4.896,1.479,5.457,3.926c1.326,6.07-3.725,14.994-3.725,15.248
		c1.581,12.801-1.887,19.021-13.259,10.811l1.071-0.969c10.604,7.344,6.066-6.629,4.997-15.502
		C654.394,213.971,654.189,204.332,660.41,205.199z M663.674,209.637c-1.173-0.408-3.212,3.824-1.938,12.543
		C665.153,214.072,664.745,209.941,663.674,209.637z"/>
	<path fill="#FFFFFF" d="M673.823,205.199c2.244,0.307,4.896,1.479,5.457,3.926c1.325,6.07-3.725,14.994-3.725,15.248
		c1.581,12.801-1.887,19.021-13.259,10.811l1.071-0.969c10.604,7.344,6.066-6.629,4.997-15.502
		C667.807,213.971,667.604,204.332,673.823,205.199z M677.087,209.637c-1.173-0.408-3.212,3.824-1.938,12.543
		C678.566,214.072,678.158,209.941,677.087,209.637z"/>
	<path fill="#FFFFFF" d="M701.413,224.883c-0.152,0.104-3.314,2.449-3.468,2.551c-19.686,14.074-21.93-15.707-9.181-21.623
		c8.363-3.875,15.556,4.029-1.683,16.828c0,7.701,3.569,8.109,10.199,3.723c0.15-0.102,3.416-2.445,3.567-2.549L701.413,224.883z
		 M694.376,209.891c-1.632-0.355-6.425,3.57-7.139,10.607C694.733,213.512,695.702,210.197,694.376,209.891z"/>
	<path fill="#FFFFFF" d="M705.188,199.029c-0.255,0.51-1.938,5.508-3.875,9.281l-1.429-0.357c0,0,1.429-5.457,2.04-9.588
		L705.188,199.029z M709.676,199.029c-0.255,0.51-1.938,5.508-3.876,9.281l-1.428-0.357c0,0,1.428-5.457,2.04-9.588L709.676,199.029
		z"/>
	<path fill="#FFFFFF" d="M577.053,202.159c-0.98-0.468,4.544-2.057,4.233-3.068c1.999-0.875,1.999-0.875,4.179-1.416
		c2.18-0.54,3.205-2.571,3.739-0.672C590.926,202.721,578.616,202.794,577.053,202.159z"/>
</g>
<path fill="#F37A22" d="M38.892,153.999c-19.883,0-36,16.117-36,36c0,19.882,16.118,36.001,36,36.001c19.882,0,36-16.119,36-36.001
	C74.892,170.116,58.774,153.999,38.892,153.999z M32.884,208.236v-34.45l21.226,17.226L32.884,208.236z"/>
<rect x="80.441" y="150" fill="none" width="80" height="80"/>
<path fill="#FFFFFF" d="M119.333,153.999c-19.883,0-36,16.117-36,36c0,19.882,16.118,36.001,36,36.001s36-16.119,36-36.001
	C155.333,170.116,139.215,153.999,119.333,153.999z M113.326,208.236v-34.45l21.226,17.226L113.326,208.236z"/>
<g>
	<polygon fill="#F37A22" points="73.159,63.902 73.159,40.977 74.613,40.977 74.613,75.081 73.159,75.081 73.159,66.738 
		61.114,66.738 61.114,75.262 59.66,75.262 59.66,63.902 	"/>
	<path fill="#F37A22" d="M18.258,37.551c-2.709-0.63-4.528-3.632-4.058-6.699c0.466-3.072,3.042-5.046,5.753-4.417
		c2.711,0.631,4.53,3.628,4.062,6.701C23.55,36.207,20.972,38.184,18.258,37.551"/>
	<path fill="#F37A22" d="M10.659,62.045c0.412-0.024,13.062-0.107,13.062-0.107l0.894,11.534h0.105
		c0.186,0.951,0.638,1.684,1.709,1.602c1.032-0.076,1.576-0.721,1.708-1.602h0.017l-0.005-0.111c0.01-0.079,0.02-0.154,0.023-0.237
		h-0.041L27.17,59.045c-0.101-1.239-0.18-2.429-1.485-2.332c-0.667,0.052-8.613-0.104-8.613-0.104l0.002-0.013l1.452-11.16
		c0,0,4.48,2.785,4.847,2.604l4.955,0.126c0,0.008-0.002,0.016-0.002,0.02c0,0.563,0.473,1.071,1.235,1.453l0.946,1.092h-4.551
		v3.905h11.045v20.445h4.653V54.636h11.159v-3.905h-4.55l0.945-1.092c0.762-0.381,1.235-0.889,1.235-1.453
		c0-0.004-0.002-0.012-0.002-0.02l4.952-0.126c0.369,0.181,4.85-2.604,4.85-2.604l1.162,8.944h-6.841l0.401,2.338
		c-0.965,0.008-1.697,0.012-1.881-0.004c-1.306-0.098-1.385,1.093-1.489,2.332l-0.96,14.079h-0.036
		c0.001,0.083,0.012,0.158,0.022,0.237l-0.008,0.111h0.018c0.129,0.88,0.674,1.526,1.708,1.605c1.069,0.079,1.524-0.654,1.709-1.605
		h0.103l0.895-11.534l0.817,0.008l0.202,1.178c0,0,11.632-1.104,12.044-1.08c1.258-0.213,2.74-2.35,2.744-3.785
		c0-0.123-2.172-16.036-2.172-16.036c-0.194-1.485-1.783-4.113-3.221-4.931c-1.395-0.782-5.827,4.079-5.827,4.079
		c-0.756,0.185-4.932,3.044-4.932,3.044l-5.029,0.432l0.733-1.954c0.107-0.293-0.016-0.624-0.275-0.745
		c-0.258-0.12-0.557,0.013-0.667,0.302l-0.98,2.631c-0.331,0.225-0.605,0.642-0.753,1.167c-0.548-0.115-1.154-0.175-1.792-0.175
		c-2.487,0-4.506,0.944-4.506,2.111c0,0.563,0.473,1.071,1.238,1.453l0.798,1.092h-8.162l0.797-1.092
		c0.765-0.381,1.235-0.889,1.235-1.453c0-1.167-2.018-2.111-4.504-2.111c-0.639,0-1.243,0.06-1.793,0.175
		c-0.147-0.525-0.424-0.943-0.754-1.167l-0.982-2.631c-0.107-0.289-0.405-0.422-0.664-0.302c-0.26,0.122-0.382,0.452-0.275,0.745
		l0.731,1.954l-5.026-0.432c0,0-4.175-2.859-4.932-3.044c0,0-4.432-4.861-5.826-4.079c-1.442,0.817-3.031,3.446-3.223,4.931
		c0,0-2.172,15.913-2.172,16.036C7.92,59.695,9.402,61.833,10.659,62.045 M48.009,49.305l0.438-1.171
		c0.113,0.029,0.396,0.199,0.396,0.268C48.843,48.753,48.524,49.072,48.009,49.305 M45.936,49.693c-1.605,0-2.907-0.575-2.907-1.291
		c0-0.713,1.302-1.286,2.907-1.286c0.634,0,1.219,0.091,1.698,0.242c0,0-0.751,2.14-0.725,2.259
		C46.606,49.663,46.279,49.693,45.936,49.693 M31.134,47.358c0.48-0.151,1.064-0.242,1.698-0.242c1.604,0,2.908,0.572,2.908,1.286
		c0,0.716-1.303,1.291-2.908,1.291c-0.341,0-0.67-0.03-0.975-0.075C31.883,49.499,31.134,47.358,31.134,47.358 M29.925,48.402
		c0-0.069,0.281-0.239,0.396-0.268l0.438,1.171C30.244,49.072,29.925,48.753,29.925,48.402"/>
	<polygon fill="#F37A22" points="5.608,40.977 5.608,63.902 19.106,63.902 19.106,75.262 17.652,75.262 17.652,66.738 5.608,66.738 
		5.608,75.081 4.153,75.081 4.153,40.977 	"/>
	<path fill="#F37A22" d="M66.863,29.401c-0.388-0.307-2.369-2.594-3.265-2.433c-1.255,0.229-2.402,0.249-3.181,0.099
		c0.209,0.237,0.432,1.164,0.42,1.306c0.585,0.188,1.14,0.537,1.617,1.049c0.806,0.868,1.227,2.036,1.258,3.214
		c0.052,0.318,0.082,0.646,0.082,0.986c-0.011,2.866-2.091,5.096-4.639,4.98c-2.55-0.119-4.604-2.536-4.592-5.407
		c0.01-2.251,1.292-4.1,3.073-4.739c0.167-0.69,0.575-1.779,1.233-1.905c0.193-0.04,0.382-0.032,0.563-0.008
		c-0.016-0.036,1.578-1.712,3.8-2.113c0.651-0.118,3.634-0.36,5.039,0.745c1.403,1.104,2.253,2.461,1.895,3.032
		C69.807,28.775,68.268,30.506,66.863,29.401"/>
	<path fill="#F37A22" d="M59.812,25.971l-0.986-0.285c-0.131-0.016-0.3-0.132-0.374-0.26c-0.072-0.129-0.103-0.357-0.066-0.508
		l0.146-1.226c0.036-0.15,0.353,0.024,0.471,0.233l0.82,1.45C59.941,25.583,59.945,25.992,59.812,25.971"/>
	<path fill="#F37A22" d="M58.503,26.078l-0.173,0.125c-0.093,0.066-0.27-0.046-0.385-0.252l-0.173-0.304
		c-0.118-0.209-0.136-0.434-0.039-0.5l0.173-0.123c0.096-0.067,0.269,0.044,0.386,0.252l0.171,0.305
		C58.582,25.785,58.598,26.01,58.503,26.078"/>
	<path fill="#F37A22" d="M57.835,25.864c0.073,0.127,0.095,0.346,0.05,0.488l-0.191,1.121c-0.047,0.142-0.37-0.042-0.489-0.249
		l-0.822-1.455c-0.115-0.204-0.119-0.6,0.018-0.572l1.052,0.383C57.591,25.604,57.761,25.735,57.835,25.864"/>
	<path fill="#F37A22" d="M40.87,6.79L3.413,20.806c-0.189,0.069-0.402-0.027-0.473-0.217l-0.502-1.34
		c-0.07-0.189,0.025-0.402,0.216-0.472L40.111,4.761c0.189-0.071,0.402,0.025,0.473,0.215l0.501,1.34
		C41.156,6.506,41.06,6.719,40.87,6.79"/>
	<path fill="#F37A22" d="M77.346,18.776L39.889,4.761c-0.188-0.071-0.402,0.025-0.472,0.215l-0.502,1.34
		c-0.07,0.189,0.026,0.401,0.216,0.473l37.456,14.016c0.19,0.071,0.402-0.027,0.473-0.216l0.501-1.34
		C77.632,19.06,77.535,18.846,77.346,18.776"/>
</g>
<polygon fill="#F37A22" points="194.938,2.804 185.209,13.874 185.901,14.147 195.3,3.452 "/>
<path fill="#F37A22" d="M209.621,54.648c0.806,0.623,1.978,0.504,2.59-0.283l5.537-7.161c0.468-0.605,0.465-1.433,0.075-2.071
	c0.059-0.256-2.44-9.093-2.44-9.093c-0.14-0.593-1.941-3.071-2.781-3.328l-0.876-0.27c-0.194-0.101-0.393-0.193-0.604-0.262
	l-5.535-1.836c-0.444-0.145-0.892-0.201-1.331-0.181c-0.01-0.002-0.019-0.005-0.032-0.006l-0.008,0.009
	c-1.314,0.077-7.385-1.315-7.457-1.352l-0.047-8.254v-0.001c0.719-0.148,1.533-0.649,1.932-1.385l2.438,0.962l2.199-2.5
	L195.542,3.88l-9.179,10.446l8.286,3.27c-0.092,0.419-0.128,0.82-0.085,1.191c-0.899,0.132-1.609,0.883-1.604,1.795l0.046,9.048
	c0.004,0.766,0.521,1.419,1.217,1.679c0.061,0.13,3.961,1.852,6.761,4.245c0.024,0.044,0.007,0.027-0.003,0.01l-6.144,18.641
	c-0.623,1.245-7.487,17.669-7.487,17.669c-0.622,1.404-0.227,2.956,1.054,3.523c1.277,0.568,2.692-0.178,3.315-1.583l8.217-17.792
	l1.136-0.131c-0.86,0.453,7.777,19.425,7.777,19.425c0.528,1.443,1.712,2.221,3.024,1.736c1.312-0.484,1.965-2.065,1.437-3.504
	c0,0-7.783-20.494-8.085-19.623c0,0,5.854-13.821,6.404-14.133c0,0,2.611,5.641,2.66,5.747l-4.365,6.421
	C209.314,52.747,208.81,54.022,209.621,54.648 M195.388,18.852c-0.042-0.276-0.032-0.594,0.037-0.949l2.424,0.958
	c-0.325,0.565-0.838,0.894-1.322,0.945C196.303,19.35,195.886,19.005,195.388,18.852 M205.568,43.237l-2.139,1.261l-0.993-2.269
	l3.109-7.37l1.907,0.617L205.568,43.237z M208.467,33.678l-0.204,0.636c-0.178,0.553-0.769,0.859-1.322,0.681l-0.816-0.263
	c-0.547-0.178-0.854-0.771-0.678-1.322l0.207-0.64c0.176-0.549,0.771-0.854,1.323-0.678l0.815,0.265
	C208.34,32.531,208.646,33.128,208.467,33.678"/>
<polygon fill="#F37A22" points="202.688,20.772 204.125,19.141 203.518,18.065 201.539,20.315 "/>
<rect x="579.24" y="1.831" transform="matrix(0.3754 0.9269 -0.9269 0.3754 365.7582 -538.2657)" fill="#F37A22" width="5.984" height="0.803"/>
<rect x="181.816" y="9.611" transform="matrix(0.9043 0.4268 -0.4268 0.9043 21.8064 -77.525)" fill="#F37A22" width="4.073" height="0.548"/>
<rect x="184.927" y="4.91" transform="matrix(0.7441 0.6681 -0.6681 0.7441 51.3063 -123.576)" fill="#F37A22" width="4.071" height="0.548"/>
<path fill="#F37A22" d="M211.361,19.852c-1.732-0.527-3.51-0.17-4.845,0.79l1.195,3.211l-3.193-0.25
	c-0.652,2.706,0.969,5.509,3.763,6.362c2.896,0.88,5.936-0.668,6.786-3.459C215.917,23.711,214.256,20.734,211.361,19.852"/>
<path fill="#F37A22" d="M103.307,17.521c-3.191,0-5.775,2.494-5.775,5.568c0,3.074,2.584,5.567,5.775,5.567
	c3.19,0,5.778-2.493,5.778-5.567C109.085,20.015,106.497,17.521,103.307,17.521"/>
<path fill="#F37A22" d="M126.218,17.425c-3.188,0-5.776,2.493-5.776,5.568c0,3.074,2.588,5.567,5.776,5.567
	c3.191,0,5.778-2.493,5.778-5.567C131.996,19.918,129.409,17.425,126.218,17.425"/>
<path fill="#F37A22" d="M143.003,51.223c1.594,0,2.888-1.244,2.888-2.784c0-1.536-1.294-2.784-2.888-2.784
	c-1.595,0-2.889,1.248-2.889,2.784C140.114,49.979,141.408,51.223,143.003,51.223"/>
<path fill="#F37A22" d="M150.374,47.694c-0.506-0.338-1.188-0.264-1.61,0.334l-2.749,3.788h-5.785c0,0-2.919-4.56-2.919-4.942
	V34.091c0-0.669-0.15-1.418-0.479-1.878c-0.756-1.311-2.207-2.345-4.052-2.345h-11.267c-2.187,0-4.037,1.399-4.639,3.125
	c-0.097,0.229-1.796,10.938-1.796,10.938l-1.21-9.757c0-2.321-2.279-4.306-4.952-4.306H97.659c-1.695,0-3.078,0.897-3.943,2.042
	c-0.479,0.468-0.688,1.348-0.688,2.182v12.784c0,1.406,0.667,2.556,1.731,2.556c1.069,0,1.733-1.15,1.733-2.556v-8.081
	c0.386,0.052,1.158,0.083,1.158,0.083v33.958c0,1.572,1.039,2.858,2.503,2.858c1.46,0,2.502-1.287,2.502-2.858V57.979h1.154v14.855
	c0,1.572,1.427,2.858,2.888,2.858c1.463,0,2.888-1.287,2.888-2.858V38.827c0-0.033,0.547-0.085,0.806-0.158l1.144,8.401
	c0.188,1.393,1.23,2.42,2.289,2.282c0.504-0.066,0.931-0.387,1.225-0.855c0.283,0.446,0.693,0.756,1.176,0.828
	c1.055,0.159,2.118-0.846,2.337-2.235l1.189-8.472c0.244,0.078,0.232,0.141,0.616,0.183v10.084l-5.51,10.711l5.51-0.031v13.267
	c0,1.572,1.04,2.858,2.502,2.858c1.463,0,2.503-1.287,2.503-2.858V59.541l1.155-0.009v13.303c0,1.572,1.619,2.858,3.082,2.858
	c1.461,0,3.08-1.287,3.08-2.858v-13.33l4.762-0.029L132.69,48.49v-9.614c0,0,0.385-0.023,0.771-0.055v8.053
	c0,1.406,1.197,2.819,2.223,2.533c0.653-0.182,0.029,0.002,0.011,0.004l3.955,5.422l-0.24,19.378c0,0.814,0.616,1.48,1.455,1.48
	c0.839,0,1.455-0.666,1.455-1.48V66.45h0.768v7.762c0,0.814,0.899,1.48,1.737,1.48c0.84,0,1.343-0.666,1.343-1.48V55.221
	c0-0.103,4.315-5.841,4.315-5.841C150.908,48.78,150.875,48.037,150.374,47.694 M106.279,37.45l-2.273,2.275
	c-0.387,0.387-1.015,0.387-1.402,0l-2.269-2.27c-0.712-0.71-0.713-1.863-0.005-2.578c0.737-0.742,1.947-0.715,2.649,0.06l0.325,0.44
	l0.331-0.445c0.702-0.776,1.913-0.804,2.65-0.06C106.994,35.586,106.991,36.738,106.279,37.45 M129.511,37.45l-2.275,2.275
	c-0.388,0.387-1.015,0.387-1.402,0l-2.269-2.27c-0.711-0.71-0.713-1.863-0.005-2.578c0.738-0.742,1.948-0.715,2.65,0.06l0.324,0.44
	l0.331-0.445c0.703-0.776,1.913-0.804,2.649-0.06C130.225,35.586,130.222,36.738,129.511,37.45 M144.525,55.764l-1.165,1.165
	c-0.199,0.2-0.52,0.2-0.718,0l-1.163-1.163c-0.364-0.365-0.366-0.955-0.003-1.32c0.378-0.381,0.999-0.368,1.358,0.031L143,54.702
	l0.17-0.229c0.359-0.397,0.98-0.412,1.358-0.03C144.892,54.808,144.89,55.399,144.525,55.764"/>
<g>
	<path fill="#3A567D" d="M292.766,10.49c2.2,0.3,4.8,1.45,5.351,3.85c1.3,5.951-3.65,14.701-3.65,14.951
		c1.55,12.551-1.851,18.651-13.001,10.601l1.05-0.95c10.401,7.2,5.95-6.5,4.9-15.201C286.866,19.091,286.666,9.64,292.766,10.49z
		 M295.966,14.841c-1.15-0.4-3.15,3.75-1.9,12.3C297.417,19.191,297.016,15.141,295.966,14.841z"/>
	<path fill="#3A567D" d="M308.866,32.292c4.6-0.6,7.05-8.15,6.25-11.551c-6.5-0.2-3.45-6.6-0.05-5.2c3.8,1.6,2.4,7.801,1.45,10.901
		c-1.65,5.25-5.351,9.75-10.851,9.5c-7.951-0.35-8.451-19.751,1.149-24.651c2.9-1.5,6.101-1.6,8.201,0.6c0.6,0.7,1.149,1.5,1.55,2.5
		C304.365,9.541,302.415,33.092,308.866,32.292z"/>
	<path fill="#3A567D" d="M329.015,47.993c-6.7,5.5-14.65-6.051-0.95-9.45c0.75-2.75,1.5-7.051,1.95-10.551
		c-5.45,18.051-14.65,4.601-8.7-18.001c4.5,1.4,5.601,2.25,5.45,2.85c-2.5,9.051-2.35,19.051-0.5,18.551
		c1.9-0.5,4.601-12,4.9-19.101c0-0.65,5.95,1.5,5.9,2C336.666,22.041,335.266,42.842,329.015,47.993z M322.465,45.842
		c0.75,1.15,3.3,0.45,5.15-5.65C322.715,41.743,321.765,44.693,322.465,45.842z"/>
	<path fill="#3A567D" d="M347.865,32.292c4.6-0.6,7.05-8.15,6.25-11.551c-6.5-0.2-3.45-6.6-0.05-5.2c3.8,1.6,2.4,7.801,1.45,10.901
		c-1.65,5.25-5.351,9.75-10.851,9.5c-7.951-0.35-8.451-19.751,1.149-24.651c2.9-1.5,6.101-1.6,8.201,0.6c0.6,0.7,1.149,1.5,1.55,2.5
		C343.364,9.541,341.414,33.092,347.865,32.292z"/>
	<path fill="#3A567D" d="M386.215,32.192c-18.901,11.15-17.151-11.101-17.151-12.001c-1.949,3.15-3.45,8.3-5.8,15.401
		c-0.3,0.85-3.801,0.15-4.2-1.35c-1.4-4.9-0.601-16.201,1.65-23.451c4.5,1.45,5.649,2.3,5.45,2.9
		c-1.051,2.5-2.801,10.401-3.251,16.151c1.801-5.25,6.601-18.051,8.951-18.101c1.3-0.05,4.2,1.1,4.101,1.65
		c-3.801,15.951-1.751,24.001,9.8,17.701L386.215,32.192z"/>
	<path fill="#3A567D" d="M387.014,10.49c2.2,0.3,4.8,1.45,5.351,3.85c1.3,5.951-3.65,14.701-3.65,14.951
		c1.55,12.551-1.851,18.651-13.001,10.601l1.05-0.95c10.401,7.2,5.95-6.5,4.9-15.201C381.114,19.091,380.914,9.64,387.014,10.49z
		 M390.214,14.841c-1.15-0.4-3.15,3.75-1.9,12.3C391.665,19.191,391.264,15.141,390.214,14.841z"/>
	<path fill="#3A567D" d="M423.914,32.992c-12.95,7.65-19.051-0.45-17.451-13.751c0.25-2.25,0.751-4.75,1.4-7.15
		c-1.5-0.4-2.45-0.7-2.45-0.7l-0.05-1.35c0,0,1.15,0.25,2.851,0.5c0.899-3.2,1.85-6.201,2.6-8.301c4.551,1.45,5.25,3.2,5.051,3.85
		c-0.45,1.7-0.9,3.351-1.351,5c1.851,0.05,3.801-0.05,5.501-0.4l0.1,2.2c-1.95,0.4-4.101,0.4-6.15,0.2
		c-0.65,2.35-1.2,4.75-1.601,7.301c-1.75,11.701,1.15,16.9,11.102,11.5L423.914,32.992z"/>
	<path fill="#3A567D" d="M429.164,32.292c4.6-0.6,7.05-8.15,6.25-11.551c-6.5-0.2-3.45-6.6-0.05-5.2
		c3.8,1.6,2.398,7.801,1.45,10.901c-1.65,5.25-5.353,9.75-10.853,9.5c-7.951-0.35-8.451-19.751,1.149-24.651
		c2.898-1.5,6.101-1.6,8.199,0.6c0.602,0.7,1.149,1.5,1.552,2.5C424.663,9.541,422.712,33.092,429.164,32.292z"/>
	<path fill="#3A567D" d="M453.113,10.24c4.5,1.4,5.6,2.25,5.449,2.9c-3.803,15.951-1.75,24.001,9.801,17.701l0.449,1.1
		c-9.051,5.35-17.4,2.2-16.852-10.351c-5.051,26.152-16.851,13.151-10.351-11.5c4.55,1.4,5.648,2.25,5.448,2.9
		c-2.448,9.05-2.1,18.201-0.3,17.701C449.112,30.091,451.912,14.141,453.113,10.24z"/>
	<path fill="#3A567D" d="M469.613,10.49c2.199,0.3,4.799,1.45,5.35,3.85c1.301,5.951-3.648,14.701-3.648,14.951
		c1.551,12.551-1.852,18.651-13,10.601l1.049-0.95c10.4,7.2,5.951-6.5,4.898-15.201C463.713,19.091,463.512,9.64,469.613,10.49z
		 M472.812,14.841c-1.15-0.4-3.15,3.75-1.9,12.3C474.264,19.191,473.863,15.141,472.812,14.841z"/>
	<path fill="#3A567D" d="M518.664,32.292c-8.801,5.15-14.451,3.05-16.652-3.05c-1.898,4.1-5,7.101-9.1,6.65
		c-7.051-0.7-6.65-20.102,2.049-24.552c2.65-1.35,5.502-1.3,7.252,1c0.049,0.1,0.102,0.15,0.148,0.25
		c0.201-0.7,0.398-1.35,0.602-2.05c4.5,1.4,5.602,2.25,5.449,2.9c-3.799,15.951-1.75,24.001,9.801,17.701L518.664,32.292z
		 M495.412,30.441c5.648,2.75,8.1-17.751,3.398-15.851C494.262,16.391,492.662,29.091,495.412,30.441z"/>
	<path fill="#3A567D" d="M528.012,10.49c0,0,1.4-0.35,2.699,0.8c-3.549,3.05-8.6,14.751-10.65,24.301
		c-0.447,0.85-3.801,0.15-4.301-1.35c-1.6-4.9-1.35-16.201,0.5-23.401c4.604,1.4,5.854,2.25,5.604,2.85
		c-0.9,2.5-2.25,10.401-2.451,16.151C520.711,25.391,525.662,13.44,528.012,10.49z"/>
	<path fill="#3A567D" d="M547.762,29.792c-0.148,0.1-3.25,2.4-3.398,2.5c-19.303,13.801-21.5-15.401-9-21.201
		c8.2-3.8,15.252,3.95-1.65,16.501c0,7.551,3.5,7.951,10.002,3.65c0.148-0.1,3.352-2.4,3.5-2.5L547.762,29.792z M540.861,15.091
		c-1.602-0.35-6.303,3.5-7,10.4C541.211,18.641,542.162,15.391,540.861,15.091z"/>
	<path fill="#3A567D" d="M565.162,29.591c-0.15,0.1-3.25,2.4-3.4,2.5c-19.301,13.75-21.502-13.151-9.801-20.501
		c2.85-1.8,6.301-1.75,8.951-0.25l-2.951,4.75c-9.15-2.05-12.701,25.452,3.15,14.951c0.148-0.1,3.35-2.4,3.5-2.5L565.162,29.591z"/>
	<path fill="#3A567D" d="M600.861,41.743c-6.701,0.5-13.553-5.051-15.4-5.201c-6.051,14.302-20.252-0.5-4.75-2.6
		c3.049-10.701,4.6-28.652,4.699-34.752c3.25,0.65,6.301,2,6.301,2.65c-0.451,8.05-3.25,25.151-5.6,32.902
		c7.5,3.25,13.1,3.4,20,2.15C604.562,40.442,603.662,41.493,600.861,41.743z M575.109,39.892c0.6,0.95,2.85,0.7,5-3.7
		C575.561,36.742,574.51,38.892,575.109,39.892z"/>
	<path fill="#3A567D" d="M612.209,32.992c-15.4,9.051-21.102-4.05-15.75-21.701c4.551,1.4,5.6,2.25,5.449,2.85
		c-3.75,15.951-1.699,24.051,9.852,17.751L612.209,32.992z M599.809,0.69c4.5,1.45,5.201,3.2,5.053,3.85
		c-0.553,2.15-1.553,5.2-2.15,7.351C595.408,9.94,599.809,0.69,599.809,0.69z"/>
	<path fill="#3A567D" d="M636.061,32.192c-18.9,11.15-17.15-11.101-17.15-12.001c-1.949,3.15-3.449,8.3-5.799,15.401
		c-0.303,0.85-3.803,0.15-4.201-1.35c-1.4-4.9-0.602-16.201,1.648-23.451c4.5,1.45,5.65,2.3,5.451,2.9
		c-1.051,2.5-2.801,10.401-3.252,16.151c1.801-5.25,6.604-18.051,8.951-18.101c1.301-0.05,4.201,1.1,4.1,1.65
		c-3.799,15.951-1.75,24.001,9.803,17.701L636.061,32.192z"/>
	<path fill="#3A567D" d="M641.309,32.292c4.602-0.6,7.053-8.15,6.25-11.551c-6.5-0.2-3.447-6.6-0.049-5.2
		c3.799,1.6,2.4,7.801,1.449,10.901c-1.65,5.25-5.35,9.75-10.85,9.5c-7.951-0.35-8.451-19.751,1.146-24.651
		c2.9-1.5,6.104-1.6,8.201,0.6c0.6,0.7,1.15,1.5,1.551,2.5C636.809,9.541,634.857,33.092,641.309,32.292z"/>
	<path fill="#3A567D" d="M667.008,31.592c1.4,0.45,2.102,2.05,1.549,3.6c-0.549,1.5-2.146,2.4-3.549,1.95
		c-1.399-0.45-2.051-2.05-1.5-3.55C664.057,32.042,665.658,31.142,667.008,31.592z M675.008,2.84c0-0.5-2.199-1.15-5.701-1.65
		c-0.049,3.6-1.896,20.301-3.549,26.602c0.102,0,1.852,0.45,2.25,0.25C669.008,27.542,674.707,6.44,675.008,2.84z"/>
</g>
<path fill="#3A567D" d="M164.819,81.705l0.96,0.449l-15.369,32.858l-0.96-0.449L164.819,81.705z"/>
</svg>
